<svg width="68" height="68" viewBox="0 0 68 68" fill="none" xmlns="http://www.w3.org/2000/svg">
<circle cx="34" cy="34" r="34" fill="#3C0881"/>
<path d="M42.14 44.4325C42.665 44.4325 43.0775 44.59 43.3775 44.905C43.6775 45.205 43.8275 45.595 43.8275 46.075V49H21.9125V47.3575C21.9125 47.0275 21.98 46.6825 22.115 46.3225C22.25 45.9625 22.4675 45.6325 22.7675 45.3325L32.8475 35.23C33.7025 34.375 34.46 33.5575 35.12 32.7775C35.795 31.9975 36.365 31.2175 36.83 30.4375C37.31 29.6575 37.67 28.87 37.91 28.075C38.165 27.265 38.2925 26.4175 38.2925 25.5325C38.2925 24.6775 38.1575 23.9275 37.8875 23.2825C37.6325 22.6225 37.2725 22.0825 36.8075 21.6625C36.3575 21.2275 35.81 20.905 35.165 20.695C34.535 20.47 33.8375 20.3575 33.0725 20.3575C32.3375 20.3575 31.655 20.4625 31.025 20.6725C30.41 20.8825 29.855 21.175 29.36 21.55C28.88 21.925 28.475 22.375 28.145 22.9C27.83 23.41 27.5975 23.9725 27.4475 24.5875C27.2225 25.2025 26.93 25.615 26.57 25.825C26.225 26.035 25.715 26.08 25.04 25.96L22.4975 25.51C22.7225 23.98 23.1425 22.6375 23.7575 21.4825C24.3875 20.3275 25.175 19.3675 26.12 18.6025C27.065 17.8225 28.145 17.2375 29.36 16.8475C30.59 16.4425 31.9175 16.24 33.3425 16.24C34.7825 16.24 36.1025 16.4575 37.3025 16.8925C38.5175 17.3125 39.56 17.92 40.43 18.715C41.315 19.495 42.005 20.4475 42.5 21.5725C42.995 22.6975 43.2425 23.965 43.2425 25.375C43.2425 26.575 43.0625 27.685 42.7025 28.705C42.3575 29.725 41.885 30.7 41.285 31.63C40.685 32.56 39.98 33.4675 39.17 34.3525C38.375 35.2225 37.535 36.1075 36.65 37.0075L28.82 45.0175C29.465 44.8375 30.11 44.695 30.755 44.59C31.415 44.485 32.0375 44.4325 32.6225 44.4325H42.14Z" fill="white"/>
</svg>
