<svg width="134" height="134" viewBox="0 0 134 134" fill="none" xmlns="http://www.w3.org/2000/svg">
<g clip-path="url(#clip0_51_404)">
<path d="M67 134C104.003 134 134 104.003 134 67C134 29.9969 104.003 0 67 0C29.9969 0 0 29.9969 0 67C0 104.003 29.9969 134 67 134Z" fill="#3C0881"/>
<path fill-rule="evenodd" clip-rule="evenodd" d="M30.3281 66.2927C49.8599 57.783 62.8842 52.1729 69.401 49.4624C88.0076 41.7232 91.8739 40.3789 94.3939 40.3345C94.9481 40.3247 96.1874 40.4621 96.9901 41.1134C97.668 41.6634 97.8544 42.4064 97.9437 42.9279C98.0329 43.4493 98.1441 44.6372 98.0557 45.5654C97.0474 56.1597 92.6845 81.8692 90.4649 93.735C89.5257 98.7558 87.6764 100.439 85.8861 100.604C81.9953 100.962 79.0408 98.0327 75.2723 95.5625C69.3755 91.697 66.0441 89.2907 60.3202 85.5187C53.7052 81.1596 57.9934 78.7637 61.7633 74.8481C62.7499 73.8234 79.8929 58.2305 80.2247 56.816C80.2662 56.6391 80.3047 55.9797 79.9129 55.6315C79.5212 55.2833 78.943 55.4023 78.5257 55.497C77.9343 55.6313 68.514 61.8578 50.2647 74.1765C47.5908 76.0126 45.1689 76.9072 42.9989 76.8603C40.6066 76.8087 36.0049 75.5077 32.584 74.3957C28.3881 73.0318 25.0533 72.3107 25.3437 69.9944C25.4949 68.7879 27.1564 67.554 30.3281 66.2927Z" fill="#E0E1F5"/>
</g>
<defs>
<clipPath id="clip0_51_404">
<rect width="134" height="134" fill="white"/>
</clipPath>
</defs>
</svg>
