<svg width="134" height="134" viewBox="0 0 134 134" fill="none" xmlns="http://www.w3.org/2000/svg">
<g clip-path="url(#clip0_51_403)">
<path d="M0 64.32C0 33.9992 0 18.8389 9.41945 9.41945C18.8389 0 33.9992 0 64.32 0H69.68C100.001 0 115.161 0 124.581 9.41945C134 18.8389 134 33.9992 134 64.32V69.68C134 100.001 134 115.161 124.581 124.581C115.161 134 100.001 134 69.68 134H64.32C33.9992 134 18.8389 134 9.41945 124.581C0 115.161 0 100.001 0 69.68V64.32Z" fill="#3C0881"/>
<path d="M71.069 96.4802C39.9368 96.4802 22.1798 75.3541 21.4399 40.2002H37.0345C37.5467 66.0022 49.0432 76.9315 58.1495 79.1849V40.2002H72.834V62.453C81.8264 61.4953 91.2731 51.3548 94.4603 40.2002H109.144C106.697 53.9463 96.4526 64.0868 89.1675 68.2557C96.4526 71.6359 108.121 80.4807 112.56 96.4802H96.3957C92.9239 85.7763 84.2738 77.4949 72.834 76.3681V96.4802H71.069Z" fill="#E0E1F5"/>
</g>
<defs>
<clipPath id="clip0_51_403">
<rect width="134" height="134" fill="white"/>
</clipPath>
</defs>
</svg>
