<svg width="68" height="68" viewBox="0 0 68 68" fill="none" xmlns="http://www.w3.org/2000/svg">
<circle cx="34" cy="34" r="34" fill="#3C0881"/>
<path d="M22.655 25.51C22.88 23.98 23.3 22.6375 23.915 21.4825C24.545 20.3275 25.3325 19.3675 26.2775 18.6025C27.2225 17.8225 28.3025 17.2375 29.5175 16.8475C30.7475 16.4425 32.075 16.24 33.5 16.24C34.94 16.24 36.245 16.45 37.415 16.87C38.6 17.275 39.6125 17.845 40.4525 18.58C41.3075 19.315 41.96 20.1925 42.41 21.2125C42.875 22.2325 43.1075 23.35 43.1075 24.565C43.1075 25.6 42.98 26.515 42.725 27.31C42.485 28.09 42.1325 28.78 41.6675 29.38C41.2175 29.98 40.6625 30.4825 40.0025 30.8875C39.3425 31.2925 38.6 31.63 37.775 31.9C39.785 32.485 41.2925 33.4225 42.2975 34.7125C43.3025 35.9875 43.805 37.5925 43.805 39.5275C43.805 41.0875 43.5125 42.475 42.9275 43.69C42.3425 44.905 41.5475 45.9325 40.5425 46.7725C39.5525 47.6125 38.39 48.2575 37.055 48.7075C35.735 49.1425 34.3325 49.36 32.8475 49.36C31.1825 49.36 29.7425 49.165 28.5275 48.775C27.3125 48.37 26.2625 47.8 25.3775 47.065C24.5075 46.315 23.78 45.415 23.195 44.365C22.61 43.315 22.115 42.1375 21.71 40.8325L23.8025 39.955C24.3575 39.715 24.8825 39.6475 25.3775 39.7525C25.8875 39.8575 26.255 40.135 26.48 40.585C26.72 41.065 26.99 41.5825 27.29 42.1375C27.59 42.6775 27.9725 43.18 28.4375 43.645C28.9175 44.095 29.5025 44.4775 30.1925 44.7925C30.8975 45.0925 31.76 45.2425 32.78 45.2425C33.815 45.2425 34.715 45.0775 35.48 44.7475C36.26 44.4025 36.905 43.9675 37.415 43.4425C37.94 42.9025 38.33 42.3025 38.585 41.6425C38.84 40.9825 38.9675 40.33 38.9675 39.685C38.9675 38.875 38.87 38.1325 38.675 37.4575C38.48 36.7675 38.0975 36.1825 37.5275 35.7025C36.9725 35.2225 36.1775 34.8475 35.1425 34.5775C34.1225 34.2925 32.78 34.15 31.115 34.15V30.6625C32.48 30.6475 33.6275 30.5125 34.5575 30.2575C35.5025 29.9875 36.2525 29.6275 36.8075 29.1775C37.3775 28.7125 37.7825 28.1575 38.0225 27.5125C38.2775 26.8675 38.405 26.1625 38.405 25.3975C38.405 24.5725 38.2775 23.845 38.0225 23.215C37.7675 22.585 37.4075 22.06 36.9425 21.64C36.4925 21.205 35.9525 20.8825 35.3225 20.6725C34.6925 20.4625 33.995 20.3575 33.23 20.3575C32.495 20.3575 31.8125 20.4625 31.1825 20.6725C30.5675 20.8825 30.0125 21.175 29.5175 21.55C29.0375 21.925 28.6325 22.375 28.3025 22.9C27.9725 23.41 27.7325 23.9725 27.5825 24.5875C27.3725 25.2025 27.0875 25.615 26.7275 25.825C26.3825 26.035 25.8725 26.08 25.1975 25.96L22.655 25.51Z" fill="white"/>
</svg>
