<svg width="134" height="134" viewBox="0 0 134 134" fill="none" xmlns="http://www.w3.org/2000/svg">
<g clip-path="url(#clip0_51_406)">
<path d="M0 64.32C0 33.9991 0 18.8389 9.41945 9.41945C18.8389 0 33.9991 0 64.32 0H69.68C100.001 0 115.161 0 124.581 9.41945C134 18.8389 134 33.9991 134 64.32V69.68C134 100.001 134 115.161 124.581 124.581C115.161 134 100.001 134 69.68 134H64.32C33.9991 134 18.8389 134 9.41945 124.581C0 115.161 0 100.001 0 69.68V64.32Z" fill="#3C0881"/>
<path d="M49.3138 93.7487L50.5405 94.3551C55.6526 97.3866 61.3776 98.8013 67.1029 98.8013C85.0964 98.8013 99.8183 84.2499 99.8183 66.4649C99.8183 57.9767 96.3421 49.6904 90.2082 43.6272C84.074 37.5641 75.8949 34.1285 67.1029 34.1285C49.1094 34.1285 34.3872 48.6798 34.5918 66.6671C34.5918 72.73 36.4321 78.5912 39.499 83.6435L40.3169 84.8563L37.0456 96.7805L49.3138 93.7487Z" fill="#3C0881"/>
<path d="M93.6841 40.3935C86.732 33.3201 77.1219 29.48 67.3072 29.48C46.4514 29.48 29.6846 46.2545 29.8889 66.6668C29.8889 73.1342 31.7291 79.3996 34.7964 85.0583L29.48 104.258L49.3137 99.2055C54.8344 102.237 60.9684 103.652 67.1029 103.652C87.7544 103.652 104.521 86.8772 104.521 66.4652C104.521 56.5619 100.636 47.2651 93.6841 40.3935ZM67.3072 97.3869C61.7865 97.3869 56.2658 95.9724 51.5629 93.1429L50.3361 92.5365L38.4769 95.5679L41.5439 84.0483L40.726 82.8355C31.7291 68.4863 36.0231 49.4882 50.745 40.5955C65.467 31.7031 84.4829 35.9473 93.4797 50.4987C102.476 65.0501 98.1824 83.8458 83.4607 92.7384C78.7575 95.7699 73.0325 97.3869 67.3072 97.3869ZM85.3007 74.9537L83.0515 73.9431C83.0515 73.9431 79.7803 72.5283 77.7354 71.5178C77.5308 71.5178 77.3265 71.3155 77.1219 71.3155C76.5084 71.3155 76.0995 71.5178 75.6906 71.72C75.6906 71.72 75.4863 71.9219 72.6236 75.1556C72.419 75.5598 72.0101 75.762 71.6012 75.762H71.3966C71.1923 75.762 70.7834 75.5598 70.5788 75.3578L69.5563 74.9537C67.3072 73.9431 65.2626 72.7303 63.6267 71.1136C63.2178 70.7094 62.6043 70.3052 62.1954 69.9011C60.7641 68.4863 59.3327 66.8693 58.3106 65.0504L58.106 64.6462C57.9017 64.444 57.9017 64.2421 57.6971 63.8379C57.6971 63.4337 57.6971 63.0295 57.9017 62.8273C57.9017 62.8273 58.7195 61.8167 59.3327 61.2106C59.7419 60.8062 59.9462 60.2 60.3552 59.7959C60.7641 59.1895 60.9687 58.3811 60.7641 57.7747C60.5598 56.7641 58.106 51.3074 57.4928 50.0949C57.0836 49.4884 56.675 49.2865 56.0615 49.0843H53.8123C53.4031 49.0843 52.9945 49.2865 52.5853 49.2865L52.3807 49.4884C51.9718 49.6907 51.5629 50.0949 51.154 50.2968C50.745 50.7013 50.5404 51.1051 50.1315 51.5096C48.7002 53.3285 47.8824 55.5516 47.8824 57.7747C47.8824 59.3914 48.2913 61.0084 48.9048 62.4231L49.1094 63.0295C50.9496 66.8693 53.4031 70.3052 56.675 73.3367L57.4928 74.145C58.106 74.7514 58.7195 75.1556 59.1284 75.7617C63.4224 79.3999 68.3296 82.0271 73.8503 83.4419C74.4638 83.6438 75.2817 83.6438 75.8952 83.846H77.9397C78.9621 83.846 80.1889 83.4419 81.007 83.0377C81.6202 82.6335 82.0291 82.6335 82.438 82.2294L82.8472 81.8249C83.2561 81.4207 83.665 81.2188 84.0739 80.8146C84.4829 80.4104 84.8918 80.0063 85.0964 79.6018C85.5053 78.7934 85.7096 77.7829 85.9142 76.7726V75.3578C85.9142 75.3578 85.7096 75.1556 85.3007 74.9537Z" fill="#E0E1F5"/>
</g>
<defs>
<clipPath id="clip0_51_406">
<rect width="134" height="134" fill="white"/>
</clipPath>
</defs>
</svg>
